<svg xmlns="http://www.w3.org/2000/svg" version="1.1" xmlns:xlink="http://www.w3.org/1999/xlink" xmlns:svgjs="http://svgjs.com/svgjs" width="58.22834mm" height="67.470039mm"><svg width="58.22834mm" height="67.470039mm" viewBox="0 0 58.22834 67.470039" version="1.1" id="SvgjsSvg1005" xmlns:inkscape="http://www.inkscape.org/namespaces/inkscape" xmlns:sodipodi="http://sodipodi.sourceforge.net/DTD/sodipodi-0.dtd" xmlns="http://www.w3.org/2000/svg" xmlns:svg="http://www.w3.org/2000/svg">
  <sodipodi:namedview id="SvgjsSodipodi:namedview1004" pagecolor="#505050" bordercolor="#eeeeee" borderopacity="1" inkscape:showpageshadow="0" inkscape:pageopacity="0" inkscape:pagecheckerboard="0" inkscape:deskcolor="#505050" inkscape:document-units="mm" inkscape:zoom="0.74029882" inkscape:cx="397.13693" inkscape:cy="561.25984" inkscape:window-width="1920" inkscape:window-height="1009" inkscape:window-x="-8" inkscape:window-y="-8" inkscape:window-maximized="1" inkscape:current-layer="layer1"></sodipodi:namedview>
  <defs id="SvgjsDefs1003"></defs>
  <g inkscape:label="Layer 1" inkscape:groupmode="layer" id="SvgjsG1002" transform="translate(-83.205065,-113.51159)">
    <path d="m 141.41927,137.94409 c 0.45032,-6.78656 -9.87821,-21.83595 -28.7221,-24.3564 -11.78359,-1.57668 -34.052225,21.72914 -28.665972,34.29309 7.24718,16.90343 28.733172,19.9181 37.120732,15.35245 8.38782,-4.56592 19.3503,-11.50567 20.26734,-25.28914 z" fill="#e2ddc8" id="SvgjsPath1001" style="stroke-width:0.264583"></path>
    <path d="m 120.21927,178.62695 -1.6981,-0.17224 -0.31776,-0.28231 -0.41857,-1.22423 -0.70776,-1.90024 -0.73951,-2.7469 -0.31777,-4.79372 3.01414,-11.95838 0.81306,-2.82654 0.0336,-0.80354 0.11166,-0.13705 1.48087,-1.38854 -0.88186,0.1913 -0.82576,-0.29819 -0.24765,-1.20359 1.23798,-3.87218 0.54637,-0.59954 2.50296,-2.14736 3.33692,-2.21906 0.98875,-0.48316 1.77615,-0.46712 3.65337,-0.47985 2.31616,-1.08884 0.0669,-0.0861 -0.008,-0.043 -2.00792,0.66479 -0.74428,0.11637 -2.25081,0.35869 -1.5748,0.13235 -2.18837,0.59621 -3.99335,2.55558 -1.99364,1.72958 -1.15808,0.80037 -0.33866,0.17542 -0.34026,-0.0796 -0.17568,-0.67442 0.16933,-1.66609 0.0958,-0.18335 2.2315,-3.22977 3.4872,-6.08989 0.0527,-0.1419 -6.15792,7.27599 -0.28575,-0.42563 -1.67243,-2.37379 -1.28746,-1.71858 -1.84018,-1.96725 -1.92325,-1.43478 -0.56224,-0.3619 -0.93769,-1.53683 -0.0127,-1.01391 -0.48074,-3.21712 -0.0624,-0.0462 -0.003,0.64246 -0.30824,2.81059 0.14367,1.83494 1.03187,0.93742 0.81783,0.52927 2.0783,1.93538 1.30493,1.66436 2.29076,3.44508 0.63235,1.32163 0.0257,1.32318 -0.29237,2.25901 -0.0368,0.14975 -0.1868,-0.15293 -1.76821,-0.70299 -3.54462,-0.60907 -2.66917,0.40507 -0.31946,0.14658 -1.95516,-0.24236 -0.70443,0.23601 3.1659,0.49424 0.37068,-0.14049 1.02076,-0.17674 3.00302,0.37624 2.31616,1.0107 0.71226,0.51488 0.46011,0.80513 -0.008,1.97035 0.0878,2.46301 -0.62151,2.28626 -0.6006,0.83529 -0.0847,-0.0143 -0.002,-0.48312 -0.93768,-3.15331 -0.82418,-0.98054 -0.34978,-0.53235 -0.21881,-0.40666 -0.6342,-0.10663 -0.49504,0.30745 -0.74295,0.18812 -1.95183,-0.36645 -1.15335,-0.28707 -0.25714,-0.15293 -1.63251,-1.91638 -4.74252,-2.42147 -2.483892,-0.79401 -3.93906,-2.2733 -1.30503,-1.12559 -3.12282,-1.66915 -1.5766,-0.40971 -0.0176,0.0335 0.7316,0.23913 2.86882,1.85409 0.96642,1.11903 1.15327,1.07606 4.410282,2.47439 1.87849,0.60245 4.98054,2.75326 0.55587,0.81941 0.9712,1.77297 2.50616,2.89349 3.76502,4.81118 -1.21232,9.50489 0.20611,4.65191 0.18362,2.18387 -0.35454,2.20001 -0.5416,0.6649 -1.68196,0.72866 -4.18991,0.81783 0.4808,0.70934 3.03019,-0.0558 0.69004,-0.0685 0.99192,0.0333 1.48881,0.22966 1.80975,-0.13547 0.20294,-0.0336 -2.56223,1.379 0.71094,0.1069 3.30649,-1.16047 2.41194,-0.44317 z m -4.9821,-23.01584 -1.76689,-1.90024 -3.89745,-4.21666 -0.17092,-0.28866 h 0.0879 l 4.06834,1.37742 0.80036,0.90408 0.23654,1.80605 z" fill="#aa9175" id="SvgjsPath1000" style="stroke-width:0.264583" inkscape:export-filename="path2.png" inkscape:export-xdpi="96" inkscape:export-ydpi="96"></path>
  </g>
</svg><style>@media (prefers-color-scheme: light) { :root { filter: none; } }
</style></svg>