<?xml version="1.0" standalone="no"?>
<!DOCTYPE svg PUBLIC "-//W3C//DTD SVG 20010904//EN"
 "http://www.w3.org/TR/2001/REC-SVG-20010904/DTD/svg10.dtd">
<svg version="1.0" xmlns="http://www.w3.org/2000/svg"
 width="255.000000pt" height="255.000000pt" viewBox="0 0 255.000000 255.000000"
 preserveAspectRatio="xMidYMid meet">
<metadata>
Created by potrace 1.14, written by Peter Selinger 2001-2017
</metadata>
<g transform="translate(0.000000,255.000000) scale(0.100000,-0.100000)"
fill="#000000" stroke="none">
<path d="M1115 2531 c-238 -67 -531 -298 -731 -577 -35 -49 -64 -92 -64 -96 0
-4 -11 -23 -24 -42 -66 -98 -128 -302 -125 -410 8 -243 252 -546 553 -685 102
-47 210 -83 296 -97 14 -3 49 -9 79 -14 30 -6 94 -10 142 -10 86 0 88 -1 83
-23 -7 -30 -7 -142 0 -252 8 -131 -1 -165 -48 -191 -21 -12 -71 -27 -112 -34
-70 -12 -94 -23 -80 -37 3 -3 73 -6 156 -7 82 0 150 -2 150 -3 0 -1 -19 -13
-42 -27 -52 -31 -38 -33 45 -5 67 23 64 22 119 33 21 5 42 14 49 22 9 11 6 14
-17 14 -16 0 -34 4 -40 8 -11 7 -57 130 -73 197 -18 74 -22 217 -8 269 13 49
13 49 72 66 128 35 379 190 534 329 153 136 271 321 310 487 20 84 22 97 28
160 18 192 -144 457 -402 659 -256 200 -648 323 -850 266z"/>
</g>
</svg>
